<?xml version="1.0" encoding="UTF-8"?>
<svg id="Layer_1" xmlns="http://www.w3.org/2000/svg" viewBox="0 0 306.76 96.84">
  <defs>
    <style>
      .cls-1 {
        fill: #202a3f;
      }

      .cls-2 {
        fill: #1a2333;
      }
    </style>
  </defs>
  <path class="cls-1" d="M286.88,24.25c-8.89-7.62-9.45-24.25-9.45-24.25-6.49,9.92-40.61,18.04-85.93,20.98l.36-.09c-12.11.82-25.04,1.27-38.47,1.28-13.43-.01-26.36-.46-38.47-1.28l.36.09C69.97,18.04,35.84,9.92,29.35,0c0,0-.55,16.63-9.45,24.25C11.01,31.88,0,69.43,0,69.43h.27c8.28,12.09,49.76,21.98,104.87,25.66,14.67.96,31.95,1.73,48.13,1.75,15.97-.01,32.86-.72,47.33-1.66,55.88-3.63,97.98-13.63,106.16-25.85-.46-1.55-11.17-37.62-19.88-45.08Z"/>
  <path class="cls-2" d="M286.88,24.25c-56.6,28.58-210.77,28.58-266.98,0C11.01,31.88,0,69.43,0,69.43h.27c8.28,12.09,49.76,21.98,104.87,25.66,14.67.96,31.95,1.73,48.13,1.75,15.97-.01,32.86-.72,47.33-1.66,55.88-3.63,97.98-13.63,106.16-25.85-.46-1.55-11.17-37.62-19.88-45.08Z"/>
</svg>