<?xml version="1.0" encoding="UTF-8"?>
<svg id="Layer_1" xmlns="http://www.w3.org/2000/svg" viewBox="0 0 107.43 157.44">
  <defs>
    <style>
      .cls-1 {
        fill: #fff;
      }
    </style>
  </defs>
  <path class="cls-1" d="M107.43,155.18c-.27,1.56-.63,1.94-2.12,2.26h-34.56c-1.56-.32-1.95-.7-2.27-2.26-.15-25.31-.52-49.59-1.08-72.35-1.52-28.83-18.42-13.13-18.59-12.97-7.52,7.15-8.43,17.65-8.97,23.92-.32,19.54-.53,40.1-.63,61.39-.33,1.56-.71,1.94-2.29,2.26H2.15c-1.51-.32-1.87-.7-2.15-2.26C1.04,98.29,5.59,46.61,12.51,5.81c.44-.97,9.78-2.9,28.02-5.79l.29-.02c.51.15,1.16.55,1.5.96-.47,14.12-.99,28.87-1.43,44.67.66,3.14,2.65,2.02,6.26,0,.48-.27,48.08-25.24,56.22,32.11,2.12,24.2,3.52,50.22,4.05,77.43"/>
</svg>