<svg width="165" height="276" viewBox="0 0 165 276" fill="none" xmlns="http://www.w3.org/2000/svg">
<path d="M60.3333 3.43535C60.3333 1.30881 58.4186 -0.306651 56.3217 0.0493458L2.86206 9.11876C1.20931 9.39902 0 10.8299 0 12.5048V272.565C0 274.461 1.53897 276 3.4375 276H56.8958C58.795 276 60.3333 274.461 60.3333 272.565V175.215C60.3333 145.557 76.0736 127.185 89.1894 127.185C100.994 127.185 104.404 138.997 104.404 156.843V272.565C104.404 274.461 105.942 276 107.841 276H161.562C163.462 276 165 274.461 165 272.565V148.183C165 107.765 149.786 81.7804 110.175 81.7804C94.2769 81.7804 78.7617 85.605 66.4005 94.0708C63.9461 95.752 60.3333 94.0965 60.3333 91.1211V3.43535Z" fill="white"/>
</svg>
