<?xml version="1.0" encoding="UTF-8"?>
<svg id="Layer_1" xmlns="http://www.w3.org/2000/svg" xmlns:xlink="http://www.w3.org/1999/xlink" viewBox="0 0 532.6 532.6">
  <defs>
    <style>
      .cls-1 {
        fill: #fff;
      }

      .cls-2 {
        fill: none;
      }

      .cls-3 {
        isolation: isolate;
      }

      .cls-4 {
        clip-path: url(#clippath-5);
      }
    </style>
    <clipPath id="clippath-5">
      <path class="cls-2" d="M266.3,532.6c-12.99-.53-30.29-1.91-43.2-3.49-14.06-2.29-27.75-5.69-40.98-10.09-13.23-4.4-26-9.82-38.21-16.15s-23.88-13.58-34.89-21.66-21.39-16.98-31.03-26.62c-9.64-9.64-18.54-20.01-26.62-31.03-8.08-11.02-15.33-22.68-21.66-34.89-6.33-12.21-11.74-24.98-16.15-38.21s-7.8-26.92-10.09-40.98h0c-1.57-12.91-2.96-30.21-3.49-43.2,0-14.71,1.19-29.14,3.49-43.19,2.29-14.06,5.69-27.75,10.09-40.98s9.82-25.99,16.15-38.21,13.58-23.88,21.66-34.89,16.98-21.39,26.62-31.03c9.64-9.64,20.01-18.54,31.03-26.62s22.68-15.33,34.89-21.66,24.98-11.74,38.21-16.15,26.92-7.8,40.98-10.09S251.59,0,266.3,0c147.06,0,266.26,119.23,266.26,266.3s-119.2,266.3-266.26,266.3h0s0,0,0,0Z"/>
    </clipPath>
  </defs>
  <g class="cls-3">
    <g class="cls-3">
      <g class="cls-4">
        <path class="cls-1" d="M321.91,241.09c-.27,1.56-.63,1.94-2.12,2.26-11.28,0-22.82,0-34.56,0-1.56-.32-1.95-.7-2.27-2.26-.15-25.31-.52-49.59-1.08-72.35-1.52-28.83-18.42-13.13-18.59-12.97-7.52,7.15-8.43,17.65-8.97,23.92-.32,19.54-.53,40.1-.63,61.39-.33,1.56-.71,1.94-2.29,2.26-11.82,0-23.42,0-34.77,0-1.51-.32-1.87-.7-2.15-2.26,1.04-56.88,5.59-108.56,12.51-149.36q.66-1.46,28.02-5.79l.29-.02c.51.15,1.16.55,1.5.96-.47,14.12-.99,28.87-1.43,44.67.66,3.14,2.65,2.02,6.26,0,.48-.27,48.08-25.24,56.22,32.11,2.12,24.2,3.52,50.22,4.05,77.43"/>
      </g>
    </g>
  </g>
</svg>